/* XPM */
static char * image_name[] = {
"32 32 250 2",
"  	c #C2C2C2C2C2C2",
". 	c #C1C1BCBCBCBC",
"X 	c #BDBD9F9F9F9F",
"o 	c #BFBF78787878",
"O 	c #AAAA55555555",
"+ 	c #AFAF2F2F2F2F",
"@ 	c #B3B318181818",
"# 	c #AAAA14141414",
"$ 	c #9B9B6D6D6D6D",
"% 	c #B0B08D8D8D8D",
"& 	c #BCBCB3B3B3B3",
"* 	c #C2C2BCBCBCBC",
"= 	c #BEBE74747474",
"- 	c #C2C215151515",
"; 	c #BEBE12121212",
": 	c #BCBC0F0F0F0F",
"> 	c #B5B50E0E0E0E",
", 	c #AFAF0C0C0C0C",
"< 	c #A9A90B0B0B0B",
"1 	c #A1A10B0B0B0B",
"2 	c #96960B0B0B0B",
"3 	c #8E8E1B1B1B1B",
"4 	c #94944A4A4A4A",
"5 	c #B2B29D9D9D9D",
"6 	c #C0C092929292",
"7 	c #CBCB16161616",
"8 	c #D5D51B1B1B1B",
"9 	c #D7D71C1C1C1C",
"0 	c #CDCD17171717",
"q 	c #C9C916161616",
"w 	c #A4A40B0B0B0B",
"e 	c #99990A0A0A0A",
"r 	c #8D8D0A0A0A0A",
"t 	c #86860C0C0C0C",
"y 	c #C1C1C1C1C1C1",
"u 	c #C0C07A7A7A7A",
"i 	c #CACA1D1D1D1D",
"p 	c #DBDB31311C1C",
"a 	c #EDED78781515",
"s 	c #F6F6B4B40D0D",
"d 	c #FCFCE2E20606",
"f 	c #FFFFFCFC0101",
"g 	c #F4F4B3B30C0C",
"h 	c #E8E875751212",
"j 	c #D7D72D2D1818",
"k 	c #B8B80E0E0E0E",
"l 	c #7C7C0A0A0A0A",
"z 	c #B9B9B3B3B3B3",
"x 	c #CDCD1E1E1E1E",
"c 	c #F8F8BEBE0E0E",
"v 	c #FFFFFFFF0000",
"b 	c #F5F5BBBB0B0B",
"n 	c #DFDF59591616",
"m 	c #86860A0A0A0A",
"M 	c #78780B0B0B0B",
"N 	c #B7B7B0B0B0B0",
"B 	c #E7E760601D1D",
"V 	c #FCFCD4D40B0B",
"C 	c #F9F9D1D10808",
"Z 	c #C9C91A1A1A1A",
"A 	c #A6A60E0E0E0E",
"S 	c #9D9D0B0B0B0B",
"D 	c #91910B0B0B0B",
"F 	c #82820A0A0A0A",
"G 	c #74740A0A0A0A",
"H 	c #7C7C42424242",
"J 	c #BDBDBABABABA",
"K 	c #BFBF94949494",
"L 	c #C7C71C1C1C1C",
"P 	c #DBDB38382323",
"I 	c #F8F8C1C11111",
"U 	c #D4D431311C1C",
"Y 	c #ADAD0E0E0E0E",
"T 	c #A2A20E0E0E0E",
"R 	c #8A8A0B0B0B0B",
"E 	c #7B7B0B0B0B0B",
"W 	c #67670A0A0A0A",
"Q 	c #85855F5F5F5F",
"! 	c #BDBD37373737",
"~ 	c #D2D21C1C1C1C",
"^ 	c #EBEB80801D1D",
"/ 	c #E5E578781515",
"( 	c #C6C619191919",
") 	c #B9B911111111",
"_ 	c #A4A40F0F0F0F",
"` 	c #7F7F0B0B0B0B",
"' 	c #70700A0A0A0A",
"] 	c #616114141414",
"[ 	c #A7A79C9C9C9C",
"{ 	c #BABA75757575",
"} 	c #D7D728282828",
"| 	c #F7F7BABA1313",
" .	c #F2F2B5B50E0E",
"..	c #BDBD16161616",
"X.	c #B0B010101010",
"o.	c #9A9A0D0D0D0D",
"O.	c #84840A0A0A0A",
"+.	c #76760C0C0C0C",
"@.	c #66660D0D0D0D",
"#.	c #757549494949",
"$.	c #D9D92A2A2A2A",
"%.	c #FBFBE4E40808",
"&.	c #FAFAE2E20606",
"*.	c #CCCC21212121",
"=.	c #6A6A10101010",
"-.	c #616121212121",
";.	c #B6B616161616",
":.	c #77770A0A0A0A",
">.	c #64641C1C1C1C",
",.	c #85856B6B6B6B",
"<.	c #FCFCE4E40808",
"1.	c #BABA19191919",
"2.	c #AEAE10101010",
"3.	c #8F8F0C0C0C0C",
"4.	c #85850A0A0A0A",
"5.	c #6A6A0E0E0E0E",
"6.	c #616118181818",
"7.	c #6E6E47474747",
"8.	c #B2B212121212",
"9.	c #C7C720202020",
"0.	c #97970D0D0D0D",
"q.	c #8D8D0C0C0C0C",
"w.	c #76760A0A0A0A",
"e.	c #5B5B15151515",
"r.	c #5D5D2C2C2C2C",
"t.	c #9F9F31313131",
"y.	c #AFAF12121212",
"u.	c #BEBE1A1A1A1A",
"i.	c #CFCF24242424",
"p.	c #ECEC81811E1E",
"a.	c #E0E079791616",
"s.	c #C2C21D1D1D1D",
"d.	c #B1B116161616",
"f.	c #AAAA0E0E0E0E",
"g.	c #9E9E0D0D0D0D",
"h.	c #93930C0C0C0C",
"j.	c #89890C0C0C0C",
"k.	c #80800B0B0B0B",
"l.	c #65650A0A0A0A",
"z.	c #58580E0E0E0E",
"x.	c #545420202020",
"c.	c #A5A511111111",
"v.	c #D6D638382323",
"b.	c #F7F7C0C01010",
"n.	c #F0F0BBBB0B0B",
"m.	c #CCCC33331E1E",
"M.	c #BEBE1D1D1D1D",
"N.	c #7D7D0B0B0B0B",
"B.	c #60600A0A0A0A",
"V.	c #52520B0B0B0B",
"C.	c #4B4B1A1A1A1A",
"Z.	c #9F9F0F0F0F0F",
"A.	c #C8C821212121",
"S.	c #F9F9D4D40B0B",
"D.	c #F4F4D0D00707",
"F.	c #D4D459591616",
"G.	c #AAAA13131313",
"H.	c #6D6D0A0A0A0A",
"J.	c #5A5A0A0A0A0A",
"K.	c #4E4E0B0B0B0B",
"L.	c #8C8C26262626",
"P.	c #95950D0D0D0D",
"I.	c #DFDF60601D1D",
"U.	c #F2F2BDBD0D0D",
"Y.	c #EEEEBBBB0B0B",
"T.	c #D1D158581515",
"R.	c #B3B317171717",
"E.	c #A0A010101010",
"W.	c #8F8F0B0B0B0B",
"Q.	c #86860B0B0B0B",
"!.	c #72720A0A0A0A",
"~.	c #4A4A0D0D0D0D",
"^.	c #4B4B1D1D1D1D",
"/.	c #ACAC13131313",
"(.	c #C4C41F1F1F1F",
").	c #DDDD78781515",
"_.	c #F9F9E1E10505",
"`.	c #C4C431311C1C",
"'.	c #AEAE15151515",
"].	c #000000000000",
"[.	c #999968686868",
"{.	c #A3A311111111",
"}.	c #BBBB1A1A1A1A",
"|.	c #B6B619191919",
" X	c #FFFFFFFFFFFF",
".X	c #A7A712121212",
"XX	c #60605E5E5E5E",
"oX	c #BABAB4B4B4B4",
"OX	c #6C6C19191919",
"+X	c #90900C0C0C0C",
"@X	c #A1A111111111",
"#X	c #9E9E10101010",
"$X	c #9B9B10101010",
"%X	c #91910C0C0C0C",
"&X	c #7B7B4B4B4B4B",
"*X	c #92920C0C0C0C",
"=X	c #A9A99F9F9F9F",
"-X	c #73730B0B0B0B",
";X	c #8B8B0C0C0C0C",
":X	c #8C8C0C0C0C0C",
">X	c #83830B0B0B0B",
",X	c #888873737373",
"<X	c #656511111111",
"1X	c #72720C0C0C0C",
"2X	c #ABABA8A8A8A8",
"3X	c #717159595959",
"4X	c #5B5B21212121",
"5X	c #71710A0A0A0A",
"6X	c #6F6F0A0A0A0A",
"7X	c #737370707070",
"8X	c #BABABABABABA",
"9X	c #747461616161",
"0X	c #606031313131",
"qX	c #5E5E16161616",
"wX	c #61610D0D0D0D",
"eX	c #63630B0B0B0B",
"rX	c #66660A0A0A0A",
"tX	c #B3B3B0B0B0B0",
"yX	c #87877D7D7D7D",
"uX	c #646442424242",
"iX	c #545418181818",
"pX	c #555511111111",
"aX	c #54540C0C0C0C",
"sX	c #55550A0A0A0A",
"dX	c #56560B0B0B0B",
"fX	c #939390909090",
"gX	c #989895959595",
"hX	c #4F4F25252525",
"jX	c #484813131313",
"kX	c #474710101010",
"lX	c #44440A0A0A0A",
"zX	c #42420B0B0B0B",
"xX	c #3E3E0B0B0B0B",
"cX	c #B2B2B2B2B2B2",
"vX	c #868681818181",
"bX	c #5B5B4D4D4D4D",
"nX	c #4F4F39393939",
"mX	c #464628282828",
"MX	c #3F3F1D1D1D1D",
"NX	c #393914141414",
"BX	c #363610101010",
"VX	c #333310101010",
"CX	c #343416161616",
"ZX	c #393920202020",
"AX	c #B2B2B1B1B1B1",
"SX	c #91918F8F8F8F",
"DX	c #6E6E69696969",
"FX	c #505047474747",
"GX	c #414136363636",
"HX	c #38382B2B2B2B",
"                                                                ",
"                    . X o O + @ # + + $ % &                     ",
"                * = = - - - ; : > , < 1 2 3 4 5                 ",
"              6 6 7 8 8 9 8 0 q - : > , w e r t $ y             ",
"            u i p a s d f d g h j q ; k , 1 e r l 4 z           ",
"          o x x c v v v v v v v b n q ; > < 1 2 m M M N         ",
"        u x B V v v v v v v v v v C n Z ; > A S D F G H J       ",
"      K L P I v v v v v v v v v v v b U - > Y T 2 R E W Q       ",
"    . ! ~ ^ v v v v v v v v v v v v v / ( ) Y _ e r ` ' ] [     ",
"    { ( } | v v v v v v v v v v v v v  .i ..X.A o.D O.+.@.#.y   ",
"  . . Z $.%.v v v v v v v v v v v v v &.*...X.A o.D m +.=.-.[   ",
"  X ;.i $.f v v v v v v v v v v v v v f *...X.A o.D m :.=.>.,.  ",
"  { ;.i $.<.v v v v v v v v v v v v v &.*.1.2.A o.3.4.:.5.6.7.  ",
"  O 8.L } | v v v v v v v v v v v v v  .9.1.2.T 0.q.F w.@.e.r.  ",
"  t.y.u.i.p.v v v v v v v v v v v v v a.s.d.f.g.h.j.k.G l.z.x.  ",
"  3 c.;.s.v.b.v v v v v v v v v v v n.m.M.d._ o.3.t N.' B.V.C.  ",
"  3 Z.y.1.A.B S.v v v v v v v v v D.F.u.@ G.Z.2 R k.M H.J.K.C.  ",
"  L.P.c.y.1.A.I.U.v v v v v v v Y.T.1.R.# E.o.W.Q.E !.W J.~.^.  ",
"    R o._ /.1.(.m.). ._.f _. .).`.;.'.].].].].].].].].].].].].].",
"  [.F D o.{./.;.1.}.u.s.s.M.}.|.R./.c.]. X X X X X X X X X X X].",
"    G 4.W.P.Z..XG./.'.d.R.d.'.# .XE.o.]. X X XXX]. XXX]. X X X].",
"  oXOXw.O.R +Xo.Z.Z.E.@Xc.{.@X#X$XP.%X]. X X XXX]. XXX]. X X X].",
"    &XW :.` Q.q.*XP.P.0.o.o.P.*X+Xr j.]. X X XXX]. XXX]. X X X].",
"    =Xe.@.-XM k.Q.j.j.;X:X:Xj.j.t >XN.]. X X X].]. X].]. X X X].",
"      ,Xe.<X5.1XM E l l ` ` N.E M w.!.]. X X2X2X2X2X2X2X]. X X].",
"      y 3X4X>.<X5.H.' 5X5X!.!.6XH.W W ]. X X2X7X7X7X7X7X]. X X].",
"        8X9X0X-.qXwXeXl.l.rXl.eXB.J.J.]. X X2X7XtXJ tX7X]. X X].",
"          8XyXuXr.iXpXaXsXdXsXsXV.K.K.]. X X2X7XfXtXfX7X]. X X].",
"            y gX3X3XhXC.jXkXlXzXzXxXxX]. X X2X7X7X7X7X7X]. X X].",
"                cXvXbXnXmXMXNXBXVXCXZX]. X X X].].].].]. X X X].",
"                    AXSXDXFXGXHXHXGXFX]. X X X X X]. X X X X X].",
"                                      ].].].].].].].].].].].].]."};
